<mxfile host="app.diagrams.net" agent="Mozilla/5.0 (Macintosh; Intel Mac OS X 10_15_7) AppleWebKit/537.36 (KHTML, like Gecko) Chrome/128.0.0.0 Safari/537.36" version="24.7.14">
  <diagram name="PÃ¡gina-1" id="7FO_WSmjydA7ooElrLGy">
    <mxGraphModel dx="954" dy="615" grid="1" gridSize="10" guides="1" tooltips="1" connect="1" arrows="1" fold="1" page="1" pageScale="1" pageWidth="827" pageHeight="1169" math="0" shadow="0">
      <root>
        <mxCell id="0" />
        <mxCell id="1" parent="0" />
        <mxCell id="d1EHzrp8cer4NAD4_1qQ-12" value="" style="edgeStyle=orthogonalEdgeStyle;rounded=0;orthogonalLoop=1;jettySize=auto;html=1;" edge="1" parent="1" source="d1EHzrp8cer4NAD4_1qQ-1" target="d1EHzrp8cer4NAD4_1qQ-11">
          <mxGeometry relative="1" as="geometry" />
        </mxCell>
        <mxCell id="d1EHzrp8cer4NAD4_1qQ-1" value="" style="dashed=0;outlineConnect=0;html=1;align=center;labelPosition=center;verticalLabelPosition=bottom;verticalAlign=top;shape=mxgraph.webicons.chrome;gradientColor=#DFDEDE" vertex="1" parent="1">
          <mxGeometry x="585" y="386.5" width="70" height="70" as="geometry" />
        </mxCell>
        <mxCell id="d1EHzrp8cer4NAD4_1qQ-8" style="edgeStyle=orthogonalEdgeStyle;rounded=0;orthogonalLoop=1;jettySize=auto;html=1;" edge="1" parent="1" source="d1EHzrp8cer4NAD4_1qQ-2">
          <mxGeometry relative="1" as="geometry">
            <mxPoint x="665" y="421.5" as="targetPoint" />
          </mxGeometry>
        </mxCell>
        <mxCell id="d1EHzrp8cer4NAD4_1qQ-2" value="" style="shape=actor;whiteSpace=wrap;html=1;" vertex="1" parent="1">
          <mxGeometry x="715" y="391.5" width="40" height="60" as="geometry" />
        </mxCell>
        <mxCell id="d1EHzrp8cer4NAD4_1qQ-11" value="&lt;div&gt;&lt;br&gt;&lt;/div&gt;YangBA server" style="whiteSpace=wrap;html=1;verticalAlign=top;dashed=0;gradientColor=#DFDEDE;" vertex="1" parent="1">
          <mxGeometry x="560" y="260.5" width="120" height="60" as="geometry" />
        </mxCell>
        <mxCell id="d1EHzrp8cer4NAD4_1qQ-15" value="API Gateway" style="text;strokeColor=none;align=center;fillColor=none;html=1;verticalAlign=middle;whiteSpace=wrap;rounded=0;" vertex="1" parent="1">
          <mxGeometry x="409" y="221.5" width="60" height="30" as="geometry" />
        </mxCell>
        <mxCell id="d1EHzrp8cer4NAD4_1qQ-16" value="" style="outlineConnect=0;dashed=0;verticalLabelPosition=bottom;verticalAlign=top;align=center;html=1;shape=mxgraph.aws3.lambda_function;fillColor=#F58534;gradientColor=none;" vertex="1" parent="1">
          <mxGeometry x="230" y="254.5" width="69" height="72" as="geometry" />
        </mxCell>
        <mxCell id="d1EHzrp8cer4NAD4_1qQ-24" value="" style="edgeStyle=orthogonalEdgeStyle;rounded=0;orthogonalLoop=1;jettySize=auto;html=1;" edge="1" parent="1" source="d1EHzrp8cer4NAD4_1qQ-17" target="d1EHzrp8cer4NAD4_1qQ-23">
          <mxGeometry relative="1" as="geometry" />
        </mxCell>
        <mxCell id="d1EHzrp8cer4NAD4_1qQ-28" style="edgeStyle=orthogonalEdgeStyle;rounded=0;orthogonalLoop=1;jettySize=auto;html=1;" edge="1" parent="1" source="d1EHzrp8cer4NAD4_1qQ-17" target="d1EHzrp8cer4NAD4_1qQ-26">
          <mxGeometry relative="1" as="geometry">
            <mxPoint x="190" y="191.5" as="targetPoint" />
          </mxGeometry>
        </mxCell>
        <mxCell id="d1EHzrp8cer4NAD4_1qQ-17" value="AWS Lambda" style="text;strokeColor=none;align=center;fillColor=none;html=1;verticalAlign=middle;whiteSpace=wrap;rounded=0;" vertex="1" parent="1">
          <mxGeometry x="234.5" y="221.5" width="60" height="30" as="geometry" />
        </mxCell>
        <mxCell id="d1EHzrp8cer4NAD4_1qQ-18" style="edgeStyle=orthogonalEdgeStyle;rounded=0;orthogonalLoop=1;jettySize=auto;html=1;entryX=1;entryY=0.5;entryDx=0;entryDy=0;entryPerimeter=0;" edge="1" parent="1" source="d1EHzrp8cer4NAD4_1qQ-13" target="d1EHzrp8cer4NAD4_1qQ-16">
          <mxGeometry relative="1" as="geometry" />
        </mxCell>
        <mxCell id="d1EHzrp8cer4NAD4_1qQ-20" value="" style="html=1;verticalLabelPosition=bottom;align=center;labelBackgroundColor=#ffffff;verticalAlign=top;strokeWidth=2;strokeColor=#0080F0;shadow=0;dashed=0;shape=mxgraph.ios7.icons.basketball;" vertex="1" parent="1">
          <mxGeometry x="40" y="248.5" width="80" height="84" as="geometry" />
        </mxCell>
        <mxCell id="d1EHzrp8cer4NAD4_1qQ-21" style="edgeStyle=orthogonalEdgeStyle;rounded=0;orthogonalLoop=1;jettySize=auto;html=1;entryX=1.038;entryY=0.5;entryDx=0;entryDy=0;entryPerimeter=0;" edge="1" parent="1" source="d1EHzrp8cer4NAD4_1qQ-16" target="d1EHzrp8cer4NAD4_1qQ-20">
          <mxGeometry relative="1" as="geometry" />
        </mxCell>
        <mxCell id="d1EHzrp8cer4NAD4_1qQ-22" value="NBA API" style="text;strokeColor=none;align=center;fillColor=none;html=1;verticalAlign=middle;whiteSpace=wrap;rounded=0;" vertex="1" parent="1">
          <mxGeometry x="50" y="221.5" width="60" height="30" as="geometry" />
        </mxCell>
        <mxCell id="d1EHzrp8cer4NAD4_1qQ-23" value="" style="sketch=0;points=[[0,0,0],[0.25,0,0],[0.5,0,0],[0.75,0,0],[1,0,0],[0,1,0],[0.25,1,0],[0.5,1,0],[0.75,1,0],[1,1,0],[0,0.25,0],[0,0.5,0],[0,0.75,0],[1,0.25,0],[1,0.5,0],[1,0.75,0]];outlineConnect=0;fontColor=#232F3E;fillColor=#7AA116;strokeColor=#ffffff;dashed=0;verticalLabelPosition=bottom;verticalAlign=top;align=center;html=1;fontSize=12;fontStyle=0;aspect=fixed;shape=mxgraph.aws4.resourceIcon;resIcon=mxgraph.aws4.s3;" vertex="1" parent="1">
          <mxGeometry x="306.5" y="100" width="78" height="78" as="geometry" />
        </mxCell>
        <mxCell id="d1EHzrp8cer4NAD4_1qQ-25" value="AWS S3" style="text;strokeColor=none;align=center;fillColor=none;html=1;verticalAlign=middle;whiteSpace=wrap;rounded=0;" vertex="1" parent="1">
          <mxGeometry x="315.5" y="70" width="60" height="30" as="geometry" />
        </mxCell>
        <mxCell id="d1EHzrp8cer4NAD4_1qQ-26" value="" style="outlineConnect=0;dashed=0;verticalLabelPosition=bottom;verticalAlign=top;align=center;html=1;shape=mxgraph.aws3.rds;fillColor=#2E73B8;gradientColor=none;" vertex="1" parent="1">
          <mxGeometry x="144.5" y="98.5" width="72" height="81" as="geometry" />
        </mxCell>
        <mxCell id="d1EHzrp8cer4NAD4_1qQ-27" value="RDS" style="text;strokeColor=none;align=center;fillColor=none;html=1;verticalAlign=middle;whiteSpace=wrap;rounded=0;" vertex="1" parent="1">
          <mxGeometry x="150" y="70" width="60" height="30" as="geometry" />
        </mxCell>
        <mxCell id="d1EHzrp8cer4NAD4_1qQ-30" style="edgeStyle=orthogonalEdgeStyle;rounded=0;orthogonalLoop=1;jettySize=auto;html=1;" edge="1" parent="1" source="d1EHzrp8cer4NAD4_1qQ-29">
          <mxGeometry relative="1" as="geometry">
            <mxPoint x="264.5" y="330" as="targetPoint" />
          </mxGeometry>
        </mxCell>
        <mxCell id="d1EHzrp8cer4NAD4_1qQ-29" value="" style="image;sketch=0;aspect=fixed;html=1;points=[];align=center;fontSize=12;image=img/lib/mscae/Clock.svg;" vertex="1" parent="1">
          <mxGeometry x="239.5" y="386.5" width="50" height="50" as="geometry" />
        </mxCell>
        <mxCell id="d1EHzrp8cer4NAD4_1qQ-31" value="Scheduled cron trigger" style="text;strokeColor=none;align=center;fillColor=none;html=1;verticalAlign=middle;whiteSpace=wrap;rounded=0;" vertex="1" parent="1">
          <mxGeometry x="230" y="436.5" width="70" height="30" as="geometry" />
        </mxCell>
        <mxCell id="d1EHzrp8cer4NAD4_1qQ-32" value="" style="edgeStyle=orthogonalEdgeStyle;rounded=0;orthogonalLoop=1;jettySize=auto;html=1;" edge="1" parent="1" source="d1EHzrp8cer4NAD4_1qQ-11" target="d1EHzrp8cer4NAD4_1qQ-13">
          <mxGeometry relative="1" as="geometry">
            <mxPoint x="404" y="341.5" as="targetPoint" />
            <mxPoint x="525" y="291" as="sourcePoint" />
          </mxGeometry>
        </mxCell>
        <mxCell id="d1EHzrp8cer4NAD4_1qQ-13" value="" style="sketch=0;points=[[0,0,0],[0.25,0,0],[0.5,0,0],[0.75,0,0],[1,0,0],[0,1,0],[0.25,1,0],[0.5,1,0],[0.75,1,0],[1,1,0],[0,0.25,0],[0,0.5,0],[0,0.75,0],[1,0.25,0],[1,0.5,0],[1,0.75,0]];outlineConnect=0;fontColor=#232F3E;fillColor=#8C4FFF;strokeColor=#ffffff;dashed=0;verticalLabelPosition=bottom;verticalAlign=top;align=center;html=1;fontSize=12;fontStyle=0;aspect=fixed;shape=mxgraph.aws4.resourceIcon;resIcon=mxgraph.aws4.api_gateway;shadow=0;" vertex="1" parent="1">
          <mxGeometry x="400" y="251.5" width="78" height="78" as="geometry" />
        </mxCell>
        <mxCell id="d1EHzrp8cer4NAD4_1qQ-33" value="User" style="text;strokeColor=none;align=center;fillColor=none;html=1;verticalAlign=middle;whiteSpace=wrap;rounded=0;" vertex="1" parent="1">
          <mxGeometry x="705" y="451.5" width="60" height="30" as="geometry" />
        </mxCell>
        <mxCell id="d1EHzrp8cer4NAD4_1qQ-34" value="Website" style="text;strokeColor=none;align=center;fillColor=none;html=1;verticalAlign=middle;whiteSpace=wrap;rounded=0;" vertex="1" parent="1">
          <mxGeometry x="590" y="456.5" width="60" height="30" as="geometry" />
        </mxCell>
      </root>
    </mxGraphModel>
  </diagram>
</mxfile>
